<mxfile host="app.diagrams.net" agent="Mozilla/5.0 (Windows NT 10.0; Win64; x64) AppleWebKit/537.36 (KHTML, like Gecko) Chrome/141.0.0.0 Safari/537.36" version="28.2.7">
  <diagram name="PÃ¡gina-1" id="lpAWQ5Urh4B4VcDRIBTK">
    <mxGraphModel dx="463" dy="644" grid="1" gridSize="10" guides="1" tooltips="1" connect="1" arrows="1" fold="1" page="1" pageScale="1" pageWidth="3956" pageHeight="1920" math="0" shadow="0">
      <root>
        <mxCell id="0" />
        <mxCell id="1" parent="0" />
        <mxCell id="1wijcPB8x8FrTGQwCDNw-5" style="edgeStyle=orthogonalEdgeStyle;rounded=0;orthogonalLoop=1;jettySize=auto;html=1;entryX=0.5;entryY=0;entryDx=0;entryDy=0;" edge="1" parent="1" source="bDlArgT7QjAYrvo1HoKL-1" target="bDlArgT7QjAYrvo1HoKL-2">
          <mxGeometry relative="1" as="geometry" />
        </mxCell>
        <mxCell id="bDlArgT7QjAYrvo1HoKL-1" value="inicio" style="ellipse;whiteSpace=wrap;html=1;" parent="1" vertex="1">
          <mxGeometry x="100" y="40" width="120" height="80" as="geometry" />
        </mxCell>
        <mxCell id="1wijcPB8x8FrTGQwCDNw-13" style="edgeStyle=orthogonalEdgeStyle;rounded=0;orthogonalLoop=1;jettySize=auto;html=1;" edge="1" parent="1" source="bDlArgT7QjAYrvo1HoKL-2">
          <mxGeometry relative="1" as="geometry">
            <mxPoint x="160" y="300" as="targetPoint" />
            <Array as="points">
              <mxPoint x="160" y="270" />
              <mxPoint x="160" y="270" />
            </Array>
          </mxGeometry>
        </mxCell>
        <mxCell id="bDlArgT7QjAYrvo1HoKL-2" value="introducir un contador" style="whiteSpace=wrap;html=1;aspect=fixed;" parent="1" vertex="1">
          <mxGeometry x="120" y="160" width="80" height="80" as="geometry" />
        </mxCell>
        <mxCell id="XuXj0poHd1ac-5R2cBW4-2" value="mostrar que el numero2 es igual que numero1" style="whiteSpace=wrap;html=1;aspect=fixed;" parent="1" vertex="1">
          <mxGeometry x="490" y="560" width="80" height="80" as="geometry" />
        </mxCell>
        <mxCell id="1wijcPB8x8FrTGQwCDNw-4" value="final" style="ellipse;whiteSpace=wrap;html=1;" vertex="1" parent="1">
          <mxGeometry x="100" y="960" width="120" height="80" as="geometry" />
        </mxCell>
        <mxCell id="1wijcPB8x8FrTGQwCDNw-24" style="edgeStyle=orthogonalEdgeStyle;rounded=0;orthogonalLoop=1;jettySize=auto;html=1;" edge="1" parent="1" source="1wijcPB8x8FrTGQwCDNw-18" target="1wijcPB8x8FrTGQwCDNw-21">
          <mxGeometry relative="1" as="geometry" />
        </mxCell>
        <mxCell id="1wijcPB8x8FrTGQwCDNw-18" value="si" style="ellipse;whiteSpace=wrap;html=1;aspect=fixed;" vertex="1" parent="1">
          <mxGeometry x="280" y="300" width="80" height="80" as="geometry" />
        </mxCell>
        <mxCell id="1wijcPB8x8FrTGQwCDNw-22" style="edgeStyle=orthogonalEdgeStyle;rounded=0;orthogonalLoop=1;jettySize=auto;html=1;entryX=0.5;entryY=1;entryDx=0;entryDy=0;" edge="1" parent="1" source="1wijcPB8x8FrTGQwCDNw-20" target="1wijcPB8x8FrTGQwCDNw-21">
          <mxGeometry relative="1" as="geometry" />
        </mxCell>
        <mxCell id="1wijcPB8x8FrTGQwCDNw-40" style="edgeStyle=orthogonalEdgeStyle;rounded=0;orthogonalLoop=1;jettySize=auto;html=1;" edge="1" parent="1" source="1wijcPB8x8FrTGQwCDNw-20" target="1wijcPB8x8FrTGQwCDNw-39">
          <mxGeometry relative="1" as="geometry" />
        </mxCell>
        <mxCell id="1wijcPB8x8FrTGQwCDNw-20" value="no" style="ellipse;whiteSpace=wrap;html=1;aspect=fixed;" vertex="1" parent="1">
          <mxGeometry x="120" y="730" width="80" height="80" as="geometry" />
        </mxCell>
        <mxCell id="1wijcPB8x8FrTGQwCDNw-21" value="valor 1 mayor o igual a contador" style="whiteSpace=wrap;html=1;aspect=fixed;" vertex="1" parent="1">
          <mxGeometry x="280" y="528" width="80" height="80" as="geometry" />
        </mxCell>
        <mxCell id="1wijcPB8x8FrTGQwCDNw-33" style="edgeStyle=orthogonalEdgeStyle;rounded=0;orthogonalLoop=1;jettySize=auto;html=1;" edge="1" parent="1" source="1wijcPB8x8FrTGQwCDNw-28" target="1wijcPB8x8FrTGQwCDNw-29">
          <mxGeometry relative="1" as="geometry" />
        </mxCell>
        <mxCell id="1wijcPB8x8FrTGQwCDNw-35" style="edgeStyle=orthogonalEdgeStyle;rounded=0;orthogonalLoop=1;jettySize=auto;html=1;entryX=0;entryY=0.5;entryDx=0;entryDy=0;" edge="1" parent="1" source="1wijcPB8x8FrTGQwCDNw-28" target="1wijcPB8x8FrTGQwCDNw-18">
          <mxGeometry relative="1" as="geometry" />
        </mxCell>
        <mxCell id="1wijcPB8x8FrTGQwCDNw-28" value="crear variable suma" style="whiteSpace=wrap;html=1;aspect=fixed;" vertex="1" parent="1">
          <mxGeometry x="120" y="300" width="80" height="80" as="geometry" />
        </mxCell>
        <mxCell id="1wijcPB8x8FrTGQwCDNw-36" style="edgeStyle=orthogonalEdgeStyle;rounded=0;orthogonalLoop=1;jettySize=auto;html=1;" edge="1" parent="1" source="1wijcPB8x8FrTGQwCDNw-29" target="1wijcPB8x8FrTGQwCDNw-30">
          <mxGeometry relative="1" as="geometry" />
        </mxCell>
        <mxCell id="1wijcPB8x8FrTGQwCDNw-29" value="comprueba si es par" style="rhombus;whiteSpace=wrap;html=1;" vertex="1" parent="1">
          <mxGeometry x="120" y="406" width="80" height="80" as="geometry" />
        </mxCell>
        <mxCell id="1wijcPB8x8FrTGQwCDNw-37" style="edgeStyle=orthogonalEdgeStyle;rounded=0;orthogonalLoop=1;jettySize=auto;html=1;" edge="1" parent="1" source="1wijcPB8x8FrTGQwCDNw-30" target="1wijcPB8x8FrTGQwCDNw-31">
          <mxGeometry relative="1" as="geometry" />
        </mxCell>
        <mxCell id="1wijcPB8x8FrTGQwCDNw-30" value="suma a la variable suma la variable de vuelta actual" style="whiteSpace=wrap;html=1;aspect=fixed;" vertex="1" parent="1">
          <mxGeometry x="120" y="510" width="80" height="80" as="geometry" />
        </mxCell>
        <mxCell id="1wijcPB8x8FrTGQwCDNw-38" style="edgeStyle=orthogonalEdgeStyle;rounded=0;orthogonalLoop=1;jettySize=auto;html=1;entryX=0.5;entryY=0;entryDx=0;entryDy=0;" edge="1" parent="1" source="1wijcPB8x8FrTGQwCDNw-31" target="1wijcPB8x8FrTGQwCDNw-20">
          <mxGeometry relative="1" as="geometry" />
        </mxCell>
        <mxCell id="1wijcPB8x8FrTGQwCDNw-31" value="muestra la vuelta actual" style="whiteSpace=wrap;html=1;aspect=fixed;" vertex="1" parent="1">
          <mxGeometry x="120" y="622" width="80" height="80" as="geometry" />
        </mxCell>
        <mxCell id="1wijcPB8x8FrTGQwCDNw-41" style="edgeStyle=orthogonalEdgeStyle;rounded=0;orthogonalLoop=1;jettySize=auto;html=1;entryX=0.5;entryY=0;entryDx=0;entryDy=0;" edge="1" parent="1" source="1wijcPB8x8FrTGQwCDNw-39" target="1wijcPB8x8FrTGQwCDNw-4">
          <mxGeometry relative="1" as="geometry" />
        </mxCell>
        <mxCell id="1wijcPB8x8FrTGQwCDNw-39" value="mostrar la suma de todos los pares" style="whiteSpace=wrap;html=1;aspect=fixed;" vertex="1" parent="1">
          <mxGeometry x="120" y="850" width="80" height="80" as="geometry" />
        </mxCell>
      </root>
    </mxGraphModel>
  </diagram>
</mxfile>
